<?xml version="1.0" encoding="utf-8"?>
<!-- Generator: Adobe Illustrator 16.0.0, SVG Export Plug-In . SVG Version: 6.00 Build 0)  -->
<!DOCTYPE svg PUBLIC "-//W3C//DTD SVG 1.1//EN" "http://www.w3.org/Graphics/SVG/1.1/DTD/svg11.dtd">
<svg version="1.1" id="Layer_1" xmlns="http://www.w3.org/2000/svg" xmlns:xlink="http://www.w3.org/1999/xlink" x="0px" y="0px"
	 width="300px" height="300px" viewBox="0 0 300 300" enable-background="new 0 0 300 300" xml:space="preserve">
<g>
	<path fill="#795FEE" d="M282.383,222.936V25.307c0-4.008-3.194-7.256-7.134-7.256h-47.667L23.788,18.556
		c-3.934,0.01-7.118,3.256-7.118,7.256v197.124H282.383z"/>
</g>
<g>
	<ellipse fill="#6150E2" cx="146.098" cy="173.264" rx="82.448" ry="5.52"/>
	<g>
		<g>
			
				<linearGradient id="SVGID_1_" gradientUnits="userSpaceOnUse" x1="-6999.3315" y1="-675.1587" x2="-6999.3315" y2="-625.8931" gradientTransform="matrix(-0.7645 0.6447 -0.6447 -0.7645 -5638.6289 4159.3945)">
				<stop  offset="0" style="stop-color:#071786"/>
				<stop  offset="0.1509" style="stop-color:#05136B"/>
				<stop  offset="0.3236" style="stop-color:#041055"/>
				<stop  offset="0.5107" style="stop-color:#030E45"/>
				<stop  offset="0.7204" style="stop-color:#020C3B"/>
				<stop  offset="1" style="stop-color:#020C38"/>
			</linearGradient>
			<path fill="url(#SVGID_1_)" d="M123.332,121.531c5.907,4.241,10.891,9.792,15.62,15.313c2.35,2.742,9.407,14.097,11.559,17.006
				c4.071,5.515,2.167,5.426-5.116,9.381c-0.922,0.499-1.929,0.81-2.969,0.918c-12.228,1.265-17.873-15.032-21.547-23.795
				c-1.596-3.805-3.32-8.507-4.678-12.408C117.26,120.994,123.332,121.531,123.332,121.531z"/>
			
				<linearGradient id="SVGID_2_" gradientUnits="userSpaceOnUse" x1="-4947.4219" y1="-1612.0342" x2="-4947.4219" y2="-1563.1685" gradientTransform="matrix(0.2615 0.9652 -0.9652 0.2615 -94.798 5355.5708)">
				<stop  offset="0" style="stop-color:#071786"/>
				<stop  offset="0.1509" style="stop-color:#05136B"/>
				<stop  offset="0.3236" style="stop-color:#041055"/>
				<stop  offset="0.5107" style="stop-color:#030E45"/>
				<stop  offset="0.7204" style="stop-color:#020C3B"/>
				<stop  offset="1" style="stop-color:#020C38"/>
			</linearGradient>
			<path fill="url(#SVGID_2_)" d="M119.957,163.399c6.275-3.654,13.326-5.905,20.244-7.934c3.437-1.007,16.537-2.717,20.039-3.472
				c6.634-1.426,5.751,0.295,6.199,8.677c0.058,1.062-0.092,2.121-0.436,3.125c-4.036,11.805-20.944,10.129-30.307,9.815
				c-4.066-0.137-8.985-0.533-13.034-0.928C116.913,168.772,119.957,163.399,119.957,163.399z"/>
			<g>
				
					<linearGradient id="SVGID_3_" gradientUnits="userSpaceOnUse" x1="-3300.2275" y1="21.749" x2="-3300.2275" y2="1.5454" gradientTransform="matrix(0.9924 0.1228 -0.1228 0.9924 3381.8169 554.1239)">
					<stop  offset="0" style="stop-color:#FFD1C1"/>
					<stop  offset="0.3861" style="stop-color:#FFCFBF"/>
					<stop  offset="0.5877" style="stop-color:#FFC9B7"/>
					<stop  offset="0.7467" style="stop-color:#FFBDA9"/>
					<stop  offset="0.8825" style="stop-color:#FFAE97"/>
					<stop  offset="1" style="stop-color:#FF9A7F"/>
				</linearGradient>
				<path fill="url(#SVGID_3_)" d="M117.522,166.06c0.009-0.614-0.164-1.253-0.292-1.869c-0.035-0.175-0.285-1.868-0.264-2.052
					c0.275-2.681,1.782-9.968,1.782-9.968l-7.223-1.157c0,0,0.131,6.522-1.417,10.118l0.007,0.002
					c-3.455,1.337-9.506,2.915-9.506,2.915s-6.607,0.122-6.967,0.222c-0.36,0.1-1.233,0.211-2.319,0.97c0,0-0.994,1.588,6.887,4.062
					c0,0,3.377,1.297,9.096,1.224c1.225,0.069,2.452,0.139,3.678,0.21c1.258,0.071,5.012,0.498,5.549,0.203
					c0.209-0.115,0.357-0.241,0.464-0.38C117.816,169.497,117.502,167.337,117.522,166.06z"/>
				<path fill="#FFD9B6" d="M114.714,157.701c0.087,0.421,0.157,0.844,0.212,1.27c0.198-0.377,0.388-0.759,0.575-1.142
					L114.714,157.701z"/>
				
					<linearGradient id="SVGID_4_" gradientUnits="userSpaceOnUse" x1="-3313.4678" y1="17.2305" x2="-3286.9873" y2="17.2305" gradientTransform="matrix(0.9924 0.1228 -0.1228 0.9924 3381.8169 554.1239)">
					<stop  offset="0" style="stop-color:#071786"/>
					<stop  offset="0.1509" style="stop-color:#05136B"/>
					<stop  offset="0.3236" style="stop-color:#041055"/>
					<stop  offset="0.5107" style="stop-color:#030E45"/>
					<stop  offset="0.7204" style="stop-color:#020C3B"/>
					<stop  offset="1" style="stop-color:#020C38"/>
				</linearGradient>
				<path fill="url(#SVGID_4_)" d="M117.23,164.19c-0.021-0.102-0.113-0.711-0.183-1.242c-0.297,0.112-0.591,0.216-0.877,0.313
					c-3.307,1.122-6.621,0.47-9.814-0.725c-0.061-0.022-0.116-0.047-0.172-0.073c-2.841,0.873-5.573,1.585-5.573,1.585
					s-6.607,0.122-6.967,0.222c-0.36,0.1-1.233,0.211-2.319,0.97c0,0-0.994,1.588,6.887,4.062c0,0,3.377,1.297,9.096,1.224
					c1.225,0.069,2.452,0.139,3.678,0.21c1.258,0.071,5.012,0.498,5.549,0.203c0.209-0.115,0.357-0.241,0.464-0.38
					c0.818-1.062,0.504-3.222,0.524-4.499C117.531,165.445,117.358,164.807,117.23,164.19z"/>
				
					<linearGradient id="SVGID_5_" gradientUnits="userSpaceOnUse" x1="-3291.0293" y1="5.3887" x2="-3291.0293" y2="-36.0177" gradientTransform="matrix(0.9924 0.1228 -0.1228 0.9924 3381.8169 554.1239)">
					<stop  offset="0" style="stop-color:#071786"/>
					<stop  offset="0.1509" style="stop-color:#05136B"/>
					<stop  offset="0.3236" style="stop-color:#041055"/>
					<stop  offset="0.5107" style="stop-color:#030E45"/>
					<stop  offset="0.7204" style="stop-color:#020C3B"/>
					<stop  offset="1" style="stop-color:#020C38"/>
				</linearGradient>
				<path fill="url(#SVGID_5_)" d="M119.587,121.478c-0.019,0-0.039-0.001-0.057-0.002c-3.283-0.101-6.072,2.417-6.386,5.741
					c-0.767,8.133-1.849,20.179-2.464,27.049l7.44,1.436c2.132-6.783,3.861-13.756,4.98-20.797c0.486-3.059,0.99-8.097,1.104-11.193
					c0.021-0.572-0.903-1.555-0.874-2.181C121.815,121.312,121.228,121.529,119.587,121.478z"/>
			</g>
			
				<linearGradient id="SVGID_6_" gradientUnits="userSpaceOnUse" x1="-3162.8271" y1="310.2139" x2="-3165.4929" y2="308.6748" gradientTransform="matrix(0.9972 -0.0754 0.0754 0.9972 3269.5891 -441.183)">
				<stop  offset="0" style="stop-color:#E2B691"/>
				<stop  offset="1" style="stop-color:#EF9367"/>
			</linearGradient>
			<polygon fill="url(#SVGID_6_)" points="137.315,103.056 138.693,107.295 136.291,108.103 			"/>
			
				<linearGradient id="SVGID_7_" gradientUnits="userSpaceOnUse" x1="-3148.5117" y1="316.6328" x2="-3157.4849" y2="311.4521" gradientTransform="matrix(0.9972 -0.0754 0.0754 0.9972 3269.5891 -441.183)">
				<stop  offset="0" style="stop-color:#FFD1C1"/>
				<stop  offset="0.3861" style="stop-color:#FFCFBF"/>
				<stop  offset="0.5877" style="stop-color:#FFC9B7"/>
				<stop  offset="0.7467" style="stop-color:#FFBDA9"/>
				<stop  offset="0.8825" style="stop-color:#FFAE97"/>
				<stop  offset="1" style="stop-color:#FF9A7F"/>
			</linearGradient>
			<path fill="url(#SVGID_7_)" d="M144.6,107.118c0.078,1.383,0.412,9.525,0.412,9.525c0.891,0.882,4.892,0.919,6.464-0.653
				c1.25-1.251,1.314-2.294,1.314-2.294l-1.372-11.824L144.6,107.118z"/>
			
				<linearGradient id="SVGID_8_" gradientUnits="userSpaceOnUse" x1="-3149.6714" y1="310.3887" x2="-3166.1953" y2="300.8486" gradientTransform="matrix(0.9972 -0.0754 0.0754 0.9972 3269.5891 -441.183)">
				<stop  offset="0" style="stop-color:#FFD1C1"/>
				<stop  offset="0.3861" style="stop-color:#FFCFBF"/>
				<stop  offset="0.5877" style="stop-color:#FFC9B7"/>
				<stop  offset="0.7467" style="stop-color:#FFBDA9"/>
				<stop  offset="0.8825" style="stop-color:#FFAE97"/>
				<stop  offset="1" style="stop-color:#FF9A7F"/>
			</linearGradient>
			<path fill="url(#SVGID_8_)" d="M150.162,92.929l0.752,4.194l1.145,6.399l0.321,1.8c-3.524,7.306-10.165,8.561-12.511,6.392
				c-2.345-2.168-4.314-15.432-4.314-15.432L150.162,92.929z"/>
			
				<linearGradient id="SVGID_9_" gradientUnits="userSpaceOnUse" x1="83.7896" y1="304.3301" x2="108.5615" y2="304.3301" gradientTransform="matrix(-0.9972 0.0754 0.0754 0.9972 216.2489 -210.1223)">
				<stop  offset="0" style="stop-color:#071786"/>
				<stop  offset="0.1509" style="stop-color:#05136B"/>
				<stop  offset="0.3236" style="stop-color:#041055"/>
				<stop  offset="0.5107" style="stop-color:#030E45"/>
				<stop  offset="0.7204" style="stop-color:#020C3B"/>
				<stop  offset="1" style="stop-color:#020C38"/>
			</linearGradient>
			<path fill="url(#SVGID_9_)" d="M149.715,111.594c0,0-5.919-10.562-7.572-11.352c-1.653-0.79-6.868,0.903-10.016-3.18
				c-3.107-4.03-1.583-6.368-0.495-6.663c1.088-0.295,3.462,3.711,6.937,0.948c3.538-2.812,11.134-3.396,12.525-0.469
				c0,0,4.79,0.125,4.247,6.798c-0.545,6.673-1.927,12.352-3.477,12.964L149.715,111.594z"/>
			
				<linearGradient id="SVGID_10_" gradientUnits="userSpaceOnUse" x1="-3154.8672" y1="308.5771" x2="-3159.2092" y2="306.0703" gradientTransform="matrix(0.9972 -0.0754 0.0754 0.9972 3269.5891 -441.183)">
				<stop  offset="0" style="stop-color:#FFD1C1"/>
				<stop  offset="0.3861" style="stop-color:#FFCFBF"/>
				<stop  offset="0.5877" style="stop-color:#FFC9B7"/>
				<stop  offset="0.7467" style="stop-color:#FFBDA9"/>
				<stop  offset="0.8825" style="stop-color:#FFAE97"/>
				<stop  offset="1" style="stop-color:#FF9A7F"/>
			</linearGradient>
			<path fill="url(#SVGID_10_)" d="M145.73,99.914c1.736,1.211,1.952,5.082-1.052,7.456l-1.766-6.243
				C143.009,100.135,144.587,99.116,145.73,99.914z"/>
			
				<linearGradient id="SVGID_11_" gradientUnits="userSpaceOnUse" x1="107.5718" y1="359.4561" x2="74.114" y2="325.9983" gradientTransform="matrix(-0.9972 0.0754 0.0754 0.9972 216.2489 -210.1223)">
				<stop  offset="0" style="stop-color:#795FEE"/>
				<stop  offset="0.0777" style="stop-color:#7A68EF"/>
				<stop  offset="0.4923" style="stop-color:#8095F2"/>
				<stop  offset="0.8134" style="stop-color:#84B1F3"/>
				<stop  offset="1" style="stop-color:#85BBF4"/>
			</linearGradient>
			<path fill="url(#SVGID_11_)" d="M152.282,113.978c-4.517,0.539-11.619,1.887-12.929,7.184c-0.696,2.822-0.6,5.84-0.1,8.689
				c0.39,2.235,0.75,4.474,1.009,6.732c0.44,3.812,0.964,8.104-0.063,11.866l-4.234,7.888c0,0,20.556,9.225,30.748-2.992
				c0,0-0.646-30.421-5.423-37.547c-0.58-0.867-2.04-1.252-2.952-1.482C156.32,113.808,154.29,113.738,152.282,113.978z"/>
			<linearGradient id="SVGID_12_" gradientUnits="userSpaceOnUse" x1="151.4111" y1="142.7788" x2="165.5206" y2="128.1563">
				<stop  offset="0" style="stop-color:#795FEE"/>
				<stop  offset="0.0777" style="stop-color:#7A68EF"/>
				<stop  offset="0.4923" style="stop-color:#8095F2"/>
				<stop  offset="0.8134" style="stop-color:#84B1F3"/>
				<stop  offset="1" style="stop-color:#85BBF4"/>
			</linearGradient>
			<path fill="url(#SVGID_12_)" d="M161.29,115.798c-0.58-0.867-2.04-1.252-2.952-1.482c-1.527-0.385-3.063-0.517-4.589-0.455v45.73
				c4.533-0.372,9.268-1.814,12.964-6.246C166.713,153.345,166.066,122.924,161.29,115.798z"/>
			<g>
				<g>
					
						<linearGradient id="SVGID_13_" gradientUnits="userSpaceOnUse" x1="-158.3398" y1="461.4912" x2="-165.8275" y2="489.3674" gradientTransform="matrix(0.9435 -0.3315 0.3315 0.9435 125.4389 -363.4301)">
						<stop  offset="0" style="stop-color:#FFD1C1"/>
						<stop  offset="0.3861" style="stop-color:#FFCFBF"/>
						<stop  offset="0.5877" style="stop-color:#FFC9B7"/>
						<stop  offset="0.7467" style="stop-color:#FFBDA9"/>
						<stop  offset="0.8825" style="stop-color:#FFAE97"/>
						<stop  offset="1" style="stop-color:#FF9A7F"/>
					</linearGradient>
					<path fill="url(#SVGID_13_)" d="M115.15,125.526c0,0,0.488,3.934,2.754,6.571c2.267,2.638,4.856,3.683,6.98,6.469
						c1.67,2.19,18.289,18.404,19.98,12.494c0.223-0.776-0.051-1.599-0.353-2.347c-2.82-6.987-9.691-9.944-15.694-13.621
						l-2.278-1.55c0,0-0.988-3.98-3.394-6.175L115.15,125.526z"/>
					
						<linearGradient id="SVGID_14_" gradientUnits="userSpaceOnUse" x1="109.5083" y1="325.8955" x2="126.1445" y2="325.8955" gradientTransform="matrix(0.9972 -0.0754 0.0754 0.9972 -24.4309 -192.1649)">
						<stop  offset="0" style="stop-color:#18154B"/>
						<stop  offset="0.1282" style="stop-color:#191650"/>
						<stop  offset="0.2838" style="stop-color:#1C1A5F"/>
						<stop  offset="0.4536" style="stop-color:#212078"/>
						<stop  offset="0.6336" style="stop-color:#27299A"/>
						<stop  offset="0.8194" style="stop-color:#2F34C5"/>
						<stop  offset="1" style="stop-color:#3941F7"/>
					</linearGradient>
					<path fill="url(#SVGID_14_)" d="M114.398,115.735l-4.995,5.748c-0.349,0.401-0.316,1.013,0.076,1.373l10.146,9.344
						c0.394,0.361,1,0.332,1.356-0.068l4.901-5.49c0.353-0.395,0.329-1.005-0.054-1.37l-10.051-9.602
						C115.381,115.292,114.759,115.322,114.398,115.735z"/>
					<g>
						
							<linearGradient id="SVGID_15_" gradientUnits="userSpaceOnUse" x1="110.7461" y1="325.3125" x2="123.7891" y2="325.3125" gradientTransform="matrix(0.9972 -0.0754 0.0754 0.9972 -24.4309 -192.1649)">
							<stop  offset="0.0457" style="stop-color:#F8F2FA"/>
							<stop  offset="0.2204" style="stop-color:#F4F1FA"/>
							<stop  offset="0.3885" style="stop-color:#E9ECFA"/>
							<stop  offset="0.554" style="stop-color:#D5E5FB"/>
							<stop  offset="0.7179" style="stop-color:#BADAFC"/>
							<stop  offset="0.8791" style="stop-color:#97CDFD"/>
							<stop  offset="1" style="stop-color:#78C1FE"/>
						</linearGradient>
						<path fill="url(#SVGID_15_)" d="M110.399,122.115l8.654,7.996l4.638-5.196l-8.56-8.245L110.399,122.115z"/>
					</g>
					
						<linearGradient id="SVGID_16_" gradientUnits="userSpaceOnUse" x1="-165.877" y1="468.9902" x2="-168.5818" y2="458.8709" gradientTransform="matrix(0.9435 -0.3315 0.3315 0.9435 125.4389 -363.4301)">
						<stop  offset="0" style="stop-color:#FFD1C1"/>
						<stop  offset="0.3861" style="stop-color:#FFCFBF"/>
						<stop  offset="0.5877" style="stop-color:#FFC9B7"/>
						<stop  offset="0.7467" style="stop-color:#FFBDA9"/>
						<stop  offset="0.8825" style="stop-color:#FFAE97"/>
						<stop  offset="1" style="stop-color:#FF9A7F"/>
					</linearGradient>
					<path fill="url(#SVGID_16_)" d="M120.304,132.175c0,0,0.759-0.468,0.447-1.932c-0.312-1.464-0.975-4.922-0.975-4.922
						s0.011-1.235,0.491-0.963c0.48,0.271,1.521,1.035,1.921,3.181c0,0,0.417,1.844,0.885,2.318
						c0.467,0.473,1.687,1.761,1.908,3.801C124.981,133.658,121.561,134.83,120.304,132.175z"/>
				</g>
				<g>
					
						<linearGradient id="SVGID_17_" gradientUnits="userSpaceOnUse" x1="-4212.3774" y1="-1932.8076" x2="-4215.4956" y2="-1904.5598" gradientTransform="matrix(0.9828 -0.1843 0.1843 0.9828 4638.2285 1247.0604)">
						<stop  offset="0" style="stop-color:#FFD1C1"/>
						<stop  offset="0.3861" style="stop-color:#FFCFBF"/>
						<stop  offset="0.5877" style="stop-color:#FFC9B7"/>
						<stop  offset="0.7467" style="stop-color:#FFBDA9"/>
						<stop  offset="0.8825" style="stop-color:#FFAE97"/>
						<stop  offset="1" style="stop-color:#FF9A7F"/>
					</linearGradient>
					<path fill="url(#SVGID_17_)" d="M145.579,150.974c0.698-0.948,0.802-2.294,0.848-3.713c0.114-3.452,0.28-6.9,0.431-10.347
						c0.068-1.537,0.133-3.074,0.185-4.61c0.104-3.14,0.312-7.752-3.728-8.503c-0.92-0.171-2.114,0.52-2.687,1.159
						c-0.43,0.48-0.694,1.148-0.859,1.9c-0.348,1.596-0.244,3.575-0.322,4.961c-0.155,2.846-0.26,5.701-0.279,8.561
						c-0.013,1.839-0.002,3.681,0.094,5.523c0.081,1.519,0.029,3.436,0.715,4.855c0.731,1.514,2.535,1.741,3.874,1.354
						C144.655,151.881,145.204,151.484,145.579,150.974z"/>
				</g>
				<linearGradient id="SVGID_18_" gradientUnits="userSpaceOnUse" x1="151.5488" y1="138.0376" x2="132.7153" y2="121.5902">
					<stop  offset="0" style="stop-color:#795FEE"/>
					<stop  offset="0.0777" style="stop-color:#7A68EF"/>
					<stop  offset="0.4923" style="stop-color:#8095F2"/>
					<stop  offset="0.8134" style="stop-color:#84B1F3"/>
					<stop  offset="1" style="stop-color:#85BBF4"/>
				</linearGradient>
				<path fill="url(#SVGID_18_)" d="M148.784,138.495c-0.557-4.261,0.029-19.567-5.969-20.192
					c-6.64-0.691-5.354,20.376-5.354,20.376L148.784,138.495z"/>
			</g>
			<g>
				
					<linearGradient id="SVGID_19_" gradientUnits="userSpaceOnUse" x1="-5860.5664" y1="-984.855" x2="-5862.7505" y2="-1005.5005" gradientTransform="matrix(-0.1667 0.986 -0.986 -0.1667 -1877.5505 5776.4512)">
					<stop  offset="0" style="stop-color:#FFD1C1"/>
					<stop  offset="0.3861" style="stop-color:#FFCFBF"/>
					<stop  offset="0.5877" style="stop-color:#FFC9B7"/>
					<stop  offset="0.7467" style="stop-color:#FFBDA9"/>
					<stop  offset="0.8825" style="stop-color:#FFAE97"/>
					<stop  offset="1" style="stop-color:#FF9A7F"/>
				</linearGradient>
				<path fill="url(#SVGID_19_)" d="M76.954,173.756c0.597-0.094,1.187-0.377,1.761-0.61c0.164-0.065,1.762-0.603,1.943-0.614
					c2.644-0.181,9.961,0.09,9.961,0.09l-0.107-7.434c0,0-6.298,1.24-10.046,0.301l-0.001,0.01
					c-1.882-3.235-5.973-7.646-5.973-7.646s-1.387-3.598-1.545-3.943c-0.158-0.344,0.978-1.182,0.057-2.142
					c0,0-0.178-4.979-1.237,3.342c0,0-1.921,3.451-0.877,9.168c0.141,1.242,0.282,2.481,0.422,3.724
					c0.145,1.273,0.371,5.106,0.748,5.597c0.146,0.189,0.292,0.315,0.445,0.4C73.673,174.636,75.713,173.953,76.954,173.756z"/>
				
					<linearGradient id="SVGID_20_" gradientUnits="userSpaceOnUse" x1="-5874.0068" y1="-989.2344" x2="-5849.0752" y2="-989.2344" gradientTransform="matrix(-0.1667 0.986 -0.986 -0.1667 -1877.5505 5776.4512)">
					<stop  offset="0" style="stop-color:#071786"/>
					<stop  offset="0.1509" style="stop-color:#05136B"/>
					<stop  offset="0.3236" style="stop-color:#041055"/>
					<stop  offset="0.5107" style="stop-color:#030E45"/>
					<stop  offset="0.7204" style="stop-color:#020C3B"/>
					<stop  offset="1" style="stop-color:#020C38"/>
				</linearGradient>
				<path fill="url(#SVGID_20_)" d="M78.681,173.16c-0.343-1.874-0.284-3.911-0.122-5.594c0.116-1.205,0.427-2.56,0.986-3.742
					c-1.7-3.233-3.521-7.359-3.521-7.359s-1.29-4.727-1.448-5.07c-0.157-0.344-0.414-1.2-1.333-2.16c0,0-1.658-2.601-2.716,5.721
					c0,0-0.682,3.604,0.362,9.321c0.141,1.242,0.282,2.481,0.422,3.724c0.145,1.273,0.371,5.106,0.748,5.597
					c0.146,0.189,0.292,0.315,0.445,0.4c1.169,0.639,3.209-0.044,4.45-0.241C77.539,173.664,78.117,173.39,78.681,173.16z"/>
				
					<linearGradient id="SVGID_21_" gradientUnits="userSpaceOnUse" x1="-5858.9922" y1="-1001.9995" x2="-5863.395" y2="-1043.6199" gradientTransform="matrix(-0.1667 0.986 -0.986 -0.1667 -1877.5505 5776.4512)">
					<stop  offset="0" style="stop-color:#071786"/>
					<stop  offset="0.1509" style="stop-color:#05136B"/>
					<stop  offset="0.3236" style="stop-color:#041055"/>
					<stop  offset="0.5107" style="stop-color:#030E45"/>
					<stop  offset="0.7204" style="stop-color:#020C3B"/>
					<stop  offset="1" style="stop-color:#020C38"/>
				</linearGradient>
				<path fill="url(#SVGID_21_)" d="M87.091,172.594c8.615,1.221,27.533,2.895,38.219-0.819c1.679-0.585,3.482-2.32,3.669-4.199
					c0.146-1.452-0.447-3.58-1.676-4.46c-1.016-0.725-4.383-0.967-5.556-0.913c-3.32,0.152-24.517,1.871-34.531,2.69L87.091,172.594
					z"/>
			</g>
		</g>
		<g>
			<linearGradient id="SVGID_22_" gradientUnits="userSpaceOnUse" x1="189.8906" y1="100.2559" x2="189.8906" y2="118.9269">
				<stop  offset="0" style="stop-color:#F9FBFC"/>
				<stop  offset="0.0252" style="stop-color:#F5F8FC"/>
				<stop  offset="0.1969" style="stop-color:#DFE8FE"/>
				<stop  offset="0.3612" style="stop-color:#D2DEFF"/>
				<stop  offset="0.5089" style="stop-color:#CDDBFF"/>
			</linearGradient>
			<path fill="url(#SVGID_22_)" d="M177.642,120.753c-5.121-3.839-8.482-9.964-8.482-16.929c0-11.644,9.282-21.083,20.731-21.083
				s20.731,9.439,20.731,21.083c0,6.965-3.361,13.09-8.482,16.929h9.043c3.609-4.687,5.85-10.514,5.85-16.929
				c0-15.244-12.151-27.603-27.142-27.603c-14.988,0-27.142,12.358-27.142,27.603c0,6.415,2.24,12.242,5.851,16.929H177.642z"/>
			<g>
				<linearGradient id="SVGID_23_" gradientUnits="userSpaceOnUse" x1="189.4678" y1="153.6992" x2="189.4678" y2="203.9138">
					<stop  offset="0" style="stop-color:#F9FBFC"/>
					<stop  offset="0.0252" style="stop-color:#F5F8FC"/>
					<stop  offset="0.1969" style="stop-color:#DFE8FE"/>
					<stop  offset="0.3612" style="stop-color:#D2DEFF"/>
					<stop  offset="0.5089" style="stop-color:#CDDBFF"/>
				</linearGradient>
				<path fill="url(#SVGID_23_)" d="M217.788,110.343h-56.643c-2.263,0-4.097,1.866-4.097,4.167v54.583
					c0,2.303,1.834,4.17,4.097,4.17h56.643c2.263,0,4.099-1.867,4.099-4.17V114.51C221.887,112.209,220.051,110.343,217.788,110.343
					z M193.875,139.252v15.74c0,1.169-0.933,2.117-2.082,2.117h-3.803c-1.151,0-2.082-0.948-2.082-2.117v-15.74
					c-2.559-1.453-4.354-4.137-4.336-7.333c0.026-4.486,3.658-8.277,8.067-8.41c4.71-0.141,8.571,3.698,8.571,8.458
					C198.211,135.144,196.419,137.807,193.875,139.252z"/>
			</g>
		</g>
	</g>
</g>
</svg>
